<?xml version="1.0" encoding="UTF-8" standalone="no"?>
<!-- Created with Inkscape (http://www.inkscape.org/) -->

<svg
   xmlns:dc="http://purl.org/dc/elements/1.1/"
   xmlns:cc="http://creativecommons.org/ns#"
   xmlns:rdf="http://www.w3.org/1999/02/22-rdf-syntax-ns#"
   xmlns:svg="http://www.w3.org/2000/svg"
   xmlns="http://www.w3.org/2000/svg"
   xmlns:sodipodi="http://sodipodi.sourceforge.net/DTD/sodipodi-0.dtd"
   xmlns:inkscape="http://www.inkscape.org/namespaces/inkscape"
   version="1.0"
   width="1064.8351"
   height="1063.2458"
   id="svg2"
   sodipodi:version="0.32"
   inkscape:version="0.48.3.1 r9886"
   sodipodi:docname="Warszawa_outline_with_districts_v4.svg">
  <metadata
     id="metadata1462">
    <rdf:RDF>
      <cc:Work
         rdf:about="">
        <dc:format>image/svg+xml</dc:format>
        <dc:type
           rdf:resource="http://purl.org/dc/dcmitype/StillImage" />
      </cc:Work>
    </rdf:RDF>
  </metadata>
  <sodipodi:namedview
     inkscape:window-height="951"
     inkscape:window-width="1280"
     inkscape:pageshadow="2"
     inkscape:pageopacity="0.0"
     borderopacity="1.0"
     bordercolor="#666666"
     pagecolor="#ffffff"
     id="base"
     inkscape:zoom="0.42629412"
     inkscape:cx="543.2036"
     inkscape:cy="555.62802"
     inkscape:window-x="0"
     inkscape:window-y="0"
     inkscape:current-layer="svg2"
     showgrid="false"
     inkscape:window-maximized="1" />
  <defs
     id="defs4" />
  <g
     id="g4096">
    <path
       d="m 219.39284,188.82066 -20.38379,7.50563 -6.4738,-8.83829 -3.53828,5.59879 -4.14699,1.80161 -1.14129,-4.38648 c -8.09718,3.28957 -16.85176,5.0452 -25.8679,6.19054 -12.47828,14.3998 -12.2641,22.17506 -14.29894,31.04598 -10.19644,0.0839 -21.85576,-0.53796 -30.38033,-4.82227 -1.44922,-0.58878 -2.80367,0.90804 -2.33391,1.52194 3.91611,5.11775 11.3672,15.18243 10.89345,18.85216 -0.42849,3.31905 -9.88567,39.06043 -9.88567,39.06043 l 1.92891,10.00621 -2.17002,61.12233 c 3.92558,0.56495 8.01038,0.40199 12.53791,2.77281 l -6.38951,56.1795 c -11.17435,18.58516 -22.296214,37.18344 -34.720377,55.45615 l 68.235187,12.65847 c 4.57383,15.28017 -1.85583,35.89538 -7.35397,56.05894 l -22.06191,0.24111 c -6.83098,6.42785 -12.83133,10.19772 -18.08353,11.57346 l 0,13.62293 5.54562,2.53169 -1.80835,30.13921 -3.61671,0.24112 -5.183945,27.37598 -0.789771,2.41797 -22.802092,5.01062 c -14.834407,5.20144 -20.605465,14.25962 -20.615456,25.76932 -1.277808,1.75699 8.440931,34.28888 10.513883,33.60319 1.723864,0.85093 1.001545,15.85779 0.328865,15.99229 l 24.409682,-10.63227 0.206154,30.92317 15.66775,-0.4123 c 1.25468,1.0285 2.65353,1.4803 4.5354,0 l 52.1571,-0.2061 2.88617,-5.5662 14.84312,-0.6185 7.21541,-0.8246 0.82462,-4.1231 2.47386,-2.0615 2.2677,1.8554 9.27695,-2.0616 -8.65849,24.5324 12.57543,4.3292 0.41231,3.0924 3.71078,0.6184 1.64924,2.2677 0.20615,23.0893 4.94771,0 9.0708,14.4309 -2.68001,3.9169 14.43082,7.8339 -0.61846,3.0923 c 7.53096,7.0836 18.14554,14.2759 30.97964,18.4861 3.95335,1.2969 7.52253,2.211 11.4639,5.7878 l 13.34628,2.9125 0.23425,12.1976 c 14.52517,13.4202 27.55798,26.9186 50.41375,32.179 8.08851,5.1019 15.79836,11.448 22.5253,21.0236 l -12.22802,24.027 c 0,0 0.068,15.1102 -0.57561,17.899 2.27368,1.4629 8.01585,14.0746 7.55261,15.3294 l 14.03597,0.876 c -1.61485,2.8905 -3.01142,4.8145 -4.99181,6.7488 -1.8261,2.1972 -3.31962,3.5387 -3.74685,6.5803 l 5.10234,15.8518 c -2.5025,5.2207 -4.43009,8.5565 -6.79672,12.8095 -1.37867,2.4362 -1.3663,4.596 -0.0507,5.5315 l 5.32265,2.1899 c 0,0 -4.48192,15.2488 -5.1255,17.8231 -0.49702,1.1087 6.593,2.6206 6.593,2.6206 l -0.90315,4.7293 c 5.79222,1.4861 10.98629,2.745 17.25386,1.2881 l 56.94976,-0.8733 0.35543,-8.8017 39.75538,-0.8475 -1.23678,-2.2025 15.35445,-16.6332 0.66085,-3.2599 4.28244,-3.1824 10.45655,8.6065 0.6007,1.9225 8.55922,6.2147 9.89365,2.6529 48.76432,34.3963 c 0,0 3.52179,3.7378 8.04664,2.3695 2.30329,-0.6966 5.81114,-3.8699 7.61434,-6.7744 3.31812,-5.3446 3.98401,-9.3819 6.56822,-11.6622 1.27216,-1.1225 8.20054,-6.836 17.39513,-6.2159 6.62364,0.4467 13.30644,-1.9515 17.06918,-4.0505 l 4.50625,-0.4652 -5.30234,-8.8364 -2.53113,-1.0318 22.91829,-18.4599 -2.59028,-5.2166 17.15149,-15.8803 c 13.78027,2.4702 20.56079,-9.4877 24.81548,-26.6519 l 6.36417,-5.1607 c 0,0 1.77488,4.6634 3.86679,7.5138 2.29345,3.1249 2.15591,5.7189 2.15591,5.7189 2.24498,3.9337 5.61251,1.8399 6.00674,-0.2145 0.5128,-14.1459 5.55202,-23.5138 13.08612,-30.2483 l -0.37172,-4.505 c 3.90853,-1.9788 8.23918,-4.2531 11.1808,-7.9724 l 5.5088,-10.7574 7.51052,-7.7929 c 2.71532,-0.137 4.40671,0.5262 7.49249,-0.7222 0.22905,-1.8383 0.58146,-3.4298 -0.89323,-8.6756 1.11241,-1.3823 2.33249,-1.9032 3.26897,-4.693 7.67205,-0.2529 14.24643,-1.9667 21.33575,-3.9678 9.66786,0.8582 18.81199,-2.4609 27.56036,-7.1196 l 0.85811,-7.2939 28.31751,-8.152 1.50168,3.6469 62.42724,-9.0101 c 14.94535,-11.816 29.89071,-19.078 44.83606,-26.6013 l 32.60804,22.0962 -2.35979,5.3632 19.09287,16.304 16.30396,-21.8817 -19.52186,-16.304 5.79216,-12.228 6.8649,-2.1453 3.2179,-12.6571 c 1.2144,-4.2746 -0.5545,-9.4985 6.8648,-11.7989 l 7.5084,-0.6436 0.8581,-2.3598 6.782,-0.5697 c 0.8232,-4.2311 -2.6777,-5.6575 -7.5085,-6.2213 l -0.7337,-12.318 6.2213,0.429 0.3299,4.6528 1.9884,-0.1316 0.2145,-8.3665 -3.6469,-0.2145 -22.5577,-30.9333 c 5.9698,-3.0969 10.4872,-7.9796 13.0771,-13.6883 l -59.07591,-37.41954 5.61733,-7.54807 0.29746,-5.23157 c 2.90267,-1.77606 5.76739,-3.72292 8.36654,-6.86485 l 10.94085,-5.14864 c -1.01327,-1.99039 -2.52936,-4.1131 -6.43579,-6.86485 l -0.37137,-8.61351 c 4.80035,-4.37234 9.66013,-8.72591 17.31897,-12.19557 5.00632,-0.2374 10.42642,0.077 14.58772,-1.28716 -13.01813,-22.42815 -19.58744,-32.13025 -27.12942,-47.80698 l -2.26064,-0.0324 2.3598,-35.39689 c 3.9948,-4.82099 7.71974,-9.67796 9.43917,-14.80233 l 0.42905,-10.29728 -5.14864,0 -6.96401,7.61478 c -8.17529,1.80425 -16.15155,2.4143 -23.71329,0.53723 l -3.00338,-33.25162 36.68405,-2.35979 1.93074,-28.96109 -4.29053,0.21452 -5.38841,-35.39688 -139.59912,25.66025 -25.2889,-3.51353 c 7.3871,-1.29083 8.5264,-6.38257 10.85793,-10.56229 l 0.64358,-27.24487 c -2.82955,-4.23825 -5.49893,-9.85348 -8.72398,-9.48277 -2.96128,0.3404 -16.05066,-18.41583 -24.07335,-27.63034 l 1.70471,-6.75172 1.72772,-40.2296 -7.29391,-8.36654 -10.07373,4.24907 -8.63155,18.77919 -13.04465,5.28925 c -1.1167,2.47679 -1.92643,5.19477 -5.111,6.04682 -5.69394,1.4908 -5.86115,10.84895 -10.12039,11.68498 l -96.21593,18.88587 -5.80678,0.28091 -14.01275,-46.33775 -8.60449,0 c -0.73518,-2.93186 -1.39529,-5.86373 -1.07263,-8.79559 -7.3719,-8.94106 -12.53368,-18.41413 -17.3523,-26.42676 -2.82131,-4.6914 -3.75198,-10.16498 -5.57648,-15.26987 -1.44756,-4.05023 -3.25549,-7.60368 -4.53063,-11.50596 l 4.93411,-1.71621 -5.27798,-18.30667 c -3.46431,-17.62825 -7.41486,-35.51434 -13.01447,-52.99008 l 27.5171,-7.43451 -7.93749,-30.89183 3.28461,-0.38039 c -0.12484,-0.86334 0.96059,-3.23395 -1.46298,-3.23 l -3.19172,-6.31553 -0.27941,-11.31222 -6.74948,-0.0162 c -0.83469,-7.60922 -1.98503,-15.02116 -4.04356,-21.86549 l 11.66737,-0.89957 -9.01012,-39.38996 -7.59136,-0.04147 -5.63538,-19.73645 1.98843,-2.14526 c -0.91082,-4.06557 -7.11175,-27.62937 -7.93749,-28.74656 l -20.80908,5.57769 -8.58106,0.21452 -0.21453,12.01349 -16.9476,-1.28716 -10.94085,4.29054 -0.21453,-5.36317 -1.93074,-2.78885 -8.36654,-0.21452 -7.762,5.21168 -24.61981,3.18962 -7.07695,-11.36299 -5.88085,5.38246 c -0.72455,7.85073 -2.19196,17.9056 -3.82417,22.46821 l -4.54856,3.24804 -1.69448,-1.49513 -8.27305,2.49188 -18.83865,-1.59481 -2.54446,-6.08019 c 1.32236,-7.73183 -1.88132,-14.45472 -4.93119,-21.13118 -5.01699,1.12697 -9.45711,2.00833 -14.5318,2.31334 -2.93435,1.91606 -5.07844,3.5 -6.99807,5.56102 -8.85451,-0.06977 -6.50659,-1.71086 -9.05003,-3.04285 -0.8713,-0.30281 -2.72485,0.10328 -3.77937,0.723 -2.1085,1.23913 -8.89656,4.6058 -14.17713,6.31431 -7.66312,2.05747 -11.01125,4.11495 -13.66102,6.17242 l -18.34027,-0.19935 -11.36299,-33.78994 -29.40423,0.89707 -2.49188,5.18312 -17.64254,-0.09967 -0.29902,2.19285 -2.99026,-2.19285 -9.36949,18.24059 -9.96753,-5.6815 8.45122,17.34862 c 0.84556,2.01429 -0.28798,2.28232 -2.0406,2.0041 l -9.60024,-5.79687 -6.75163,6.47342 -3.85294,-3.43405 -5.48988,-2.63556 -6.46394,0.23623 -2.64888,9.40599 -24.22112,15.57054 c 6.62509,9.09948 12.8473,18.29967 20.62222,27.11169 4.3504,6.94361 8.84745,14.0336 9.74189,25.03421 l -1.83193,37.07923 -5.6344,10.82263 -1.08569,11.027 z"
       style="fill:#d3d7cf;fill-rule:evenodd;stroke:#000000;stroke-width:4;stroke-linecap:butt;stroke-linejoin:round;stroke-miterlimit:4;stroke-opacity:1;stroke-dasharray:none"
       id="path2067"
       inkscape:connector-curvature="0" />
    <path
       d="m 177.12942,174.12015 c 5.20805,2.38413 9.52242,6.71401 13.31567,11.52633 l 39.07299,57.9131 17.87826,15.81348 c 5.3912,5.71964 10.41732,6.62774 17.58943,8.54353 7.17211,1.9158 12.19387,2.869 18.89236,5.87075 l 6.59631,2.70252 c 8.81802,3.39267 11.61891,4.6331 18.75171,11.47026 4.47303,4.38549 9.2716,8.38034 14.721,11.59419 l 26.77603,17.85433 c 4.53272,3.14853 6.97912,5.32113 13.32423,10.67829 6.34511,5.35716 14.10917,13.17262 19.05664,26.94214 l 9.66969,31.14656 c 1.06015,5.55291 3.55073,8.25631 7.91204,11.58402 4.36132,3.32772 7.28892,10.02848 7.71941,11.24455 2.67018,7.28543 5.22884,14.61732 9.03365,21.42999 6.74201,15.77246 17.10594,30.54367 27.05409,45.50593 5.22673,5.84652 10.68068,11.57942 16.29874,17.23027"
       style="fill:none;stroke:#ffffff;stroke-width:6;stroke-linecap:butt;stroke-linejoin:miter;stroke-miterlimit:4;stroke-opacity:1;stroke-dasharray:none"
       id="path2533"
       inkscape:connector-curvature="0" />
    <path
       d="m 479.62333,512.29428 c 2.84013,4.18039 5.91315,7.8174 8.49137,12.60894 2.66696,5.89042 8.04209,16.08003 8.70873,17.41346 0.66664,1.33343 10.33681,44.90515 9.84417,45.00618 l 1.37239,15.3603 5.42129,29.40636 c 2.57795,12.16398 2.60813,24.39494 7.73386,36.55892 3.0852,5.96678 7.12174,11.73263 11.25579,17.69941 l 17.0701,23.02087 19.13877,28.51797 10.95,12.13913 18.12779,28.5205 0.0885,14.37461 c 10e-4,6.12118 1.3313,9.20594 2.54005,12.56752 l 10.02116,20.86373 c 2.91038,7.23597 4.55378,15.62374 5.50342,24.6422 0.32709,3.12922 1.22956,5.77476 2.38208,8.46049 l 12.81394,31.29559 c 4.95954,12.73309 3.18853,17.89838 -1.80709,35.07406 -2.89291,8.76268 -8.58695,17.68536 1.06783,30.47419 3.66498,4.61408 7.0053,9.94241 11.49969,12.7318 6.20597,3.49058 7.49338,7.42831 10.02116,11.25327 l 12.89608,20.61732 0.24643,4.3534"
       style="fill:none;stroke:#ffffff;stroke-width:6;stroke-linecap:butt;stroke-linejoin:miter;stroke-miterlimit:4;stroke-opacity:1;stroke-dasharray:none"
       id="path2535"
       inkscape:connector-curvature="0" />
    <path
       d="m 251.32244,262.84776 7.2415,9.79732 63.0436,109.47435 47.70866,14.90896 14.69598,26.83612 10.22328,24.70628 4.89866,32.58672 7.93631,18.29054 8.3719,15.61483 22.96054,60.74977 11.95862,32.52744 -2.6309,6.69682"
       style="color:#000000;fill:none;stroke:#ffffff;stroke-width:6;stroke-linecap:butt;stroke-linejoin:miter;stroke-miterlimit:4;stroke-opacity:1;stroke-dasharray:none;stroke-dashoffset:0;marker:none;visibility:visible;display:inline;overflow:visible;opacity:1"
       id="path3237"
       inkscape:connector-curvature="0" />
    <path
       d="m 459.29263,467.54082 4.96045,6.53878 9.01901,5.63687 10.14637,10.59733 8.79353,8.56805 3.83307,5.18593 c 0,0 15.8048,27.99721 27.3516,48.19076 10.75363,18.80641 35.67988,25.65932 49.25231,25.57578 9.06382,-0.0549 28.95773,3.56415 38.81298,6.32976 8.98872,2.52244 30.19913,22.5932 29.56356,22.72031 13.59135,18.6596 27.02474,37.33894 37.65433,56.36876 4.75246,13.1231 6.9153,26.70319 17.58705,38.7817 l 33.82125,42.38931 31.34103,18.038 9.46995,21.6456 36.07601,33.14483 28.8608,16.91063 9.69543,23.67488"
       style="color:#000000;fill:none;stroke:#ffffff;stroke-width:6;stroke-linecap:butt;stroke-linejoin:miter;stroke-miterlimit:4;stroke-opacity:1;stroke-dasharray:none;stroke-dashoffset:0;marker:none;visibility:visible;display:inline;overflow:visible"
       id="path2283"
       inkscape:connector-curvature="0" />
    <path
       d="M 923.32024,849.94647 743.07098,558.02807"
       style="color:#000000;fill:none;stroke:#ffffff;stroke-width:6;stroke-linecap:butt;stroke-linejoin:miter;stroke-miterlimit:4;stroke-opacity:1;stroke-dasharray:none;stroke-dashoffset:0;marker:none;visibility:visible;display:inline;overflow:visible"
       id="path2285"
       inkscape:connector-curvature="0" />
    <path
       d="m 612.84113,256.4962 -75.75961,150.16637 -13.5285,16.2342 -80.62853,55.26051 c -2.66189,2.10163 -5.47261,3.6079 -8.68203,3.51938"
       style="color:#000000;fill:none;stroke:#ffffff;stroke-width:6;stroke-linecap:butt;stroke-linejoin:miter;stroke-miterlimit:4;stroke-opacity:1;stroke-dasharray:none;stroke-dashoffset:0;marker:none;visibility:visible;display:inline;overflow:visible"
       id="path2287"
       inkscape:connector-curvature="0" />
    <path
       d="m 476.12838,454.82617 -26.53117,-33.50773 0.33821,-7.55341 0.11274,-0.78916 -6.53878,-16.91063 -9.019,-20.06728 -22.09655,-50.50641 C 395.0942,292.69154 373.20859,262.18452 349.93724,232.37037 l -26.83152,-66.51514 -33.37031,-49.6045 -30.43913,-58.172559"
       style="color:#000000;fill:none;stroke:#ffffff;stroke-width:6;stroke-linecap:butt;stroke-linejoin:miter;stroke-miterlimit:4;stroke-opacity:1;stroke-dasharray:none;stroke-dashoffset:0;marker:none;visibility:visible;display:inline;overflow:visible;opacity:1"
       id="path2281"
       inkscape:connector-curvature="0" />
    <path
       d="m 481.48053,451.514 6.68772,9.05849 24.20318,17.40931 82.65882,8.3508 15.99391,1.98155 56.89871,19.67393 61.99411,44.01865 c 7.13599,5.0029 12.0636,7.02449 15.42776,6.93542 85.92764,5.69894 170.1712,6.49152 255.19776,9.08778"
       style="color:#000000;fill:none;stroke:#ffffff;stroke-width:6;stroke-linecap:butt;stroke-linejoin:miter;stroke-miterlimit:4;stroke-opacity:1;stroke-dasharray:none;stroke-dashoffset:0;marker:none;visibility:visible;display:inline;overflow:visible"
       id="path2297"
       inkscape:connector-curvature="0" />
    <path
       d="m 118.89282,735.44137 25.19395,-5.37849 13.58775,-8.20926 45.00943,-19.81547 12.45543,-8.20927 83.50806,-91.15116 33.40322,-18.40008 41.77365,-19.74935 66.43865,-23.38184 80.98101,-27.37386 78.41471,-25.663"
       style="color:#000000;fill:none;stroke:#ffffff;stroke-width:6;stroke-linecap:butt;stroke-linejoin:miter;stroke-miterlimit:4;stroke-opacity:1;stroke-dasharray:none;stroke-dashoffset:0;marker:none;visibility:visible;display:inline;overflow:visible"
       id="path2301"
       inkscape:connector-curvature="0" />
    <path
       d="m 266.77738,559.51966 c 13.29108,-8.44618 26.52958,-16.96247 40.92856,-23.93146 l 45.63912,-15.1545"
       style="color:#000000;fill:none;stroke:#ffffff;stroke-width:6;stroke-linecap:butt;stroke-linejoin:miter;stroke-miterlimit:4;stroke-opacity:1;stroke-dasharray:none;stroke-dashoffset:0;marker:none;visibility:visible;display:inline;overflow:visible"
       id="path2305"
       inkscape:connector-curvature="0" />
    <path
       d="m 308.27209,596.45 c 0,0 -2.97542,-16.69541 -3.68001,-18.117 -0.5622,-1.13429 -7.59177,-31.30919 -9.05437,-51.94587 -0.8482,-11.82523 4.55027,-22.80266 5.80413,-30.71295 1.43149,-9.03088 -6.59168,-37.67705 -10.05237,-42.45758 -1.46251,-2.02029 -6.58758,-4.16144 -9.9098,-6.02213 -4.88298,-2.73483 -3.28828,-6.83911 -0.75338,-11.09374 13.33807,-19.09333 26.57332,-38.21613 41.29032,-54.37544 19.48233,-18.04189 41.99823,-35.80608 63.02523,-51.91714 l 11.74705,-8.13258 c 49.39786,-29.82481 98.08784,-50.91519 147.51714,-68.60277 9.89608,-3.54118 67.06065,-2.4045 67.06065,-2.4045"
       style="color:#000000;fill:none;stroke:#ffffff;stroke-width:6;stroke-linecap:butt;stroke-linejoin:miter;stroke-miterlimit:4;stroke-opacity:1;stroke-dasharray:none;stroke-dashoffset:0;marker:none;visibility:visible;display:inline;overflow:visible"
       id="path3235"
       inkscape:connector-curvature="0" />
    <path
       d="m 132.307,508.0697 59.59518,3.99202 37.39989,-7.55167 99.46942,14.68028 24.45782,-5.50969 10.13537,-1.87835"
       style="color:#000000;fill:none;stroke:#ffffff;stroke-width:6;stroke-linecap:butt;stroke-linejoin:miter;stroke-miterlimit:4;stroke-opacity:1;stroke-dasharray:none;stroke-dashoffset:0;marker:none;visibility:visible;display:inline;overflow:visible"
       id="path2312"
       inkscape:connector-curvature="0" />
    <path
       d="m 600.22897,487.82445 -15.96809,36.49848 c -7.31582,11.22868 -15.99567,16.3192 -24.80756,20.81554 l -57.88432,22.24126 -13.11664,6.84347 -52.46657,19.96011 -78.985,4.84745 -24.80756,-13.68693"
       style="color:#000000;fill:none;stroke:#ffffff;stroke-width:6;stroke-linecap:butt;stroke-linejoin:round;stroke-miterlimit:4;stroke-opacity:1;stroke-dasharray:none;stroke-dashoffset:0;marker:none;visibility:visible;display:inline;overflow:visible"
       id="path2314"
       inkscape:connector-curvature="0" />
    <path
       d="m 374.3946,565.95401 -53.03686,94.09766 -20.24525,37.06877 -47.33397,74.99298 -41.66635,24.98408"
       style="color:#000000;fill:none;stroke:#ffffff;stroke-width:6;stroke-linecap:butt;stroke-linejoin:miter;stroke-miterlimit:4;stroke-opacity:1;stroke-dasharray:none;stroke-dashoffset:0;marker:none;visibility:visible;display:inline;overflow:visible"
       id="path3285"
       inkscape:connector-curvature="0" />
    <path
       d="m 232.67818,676.12097 68.15011,21.37252 48.39061,25.00182 56.45571,21.37252 0,13.71067 c 0.8295,3.74143 5.33332,7.89512 11.49277,12.70254 11.71657,8.0831 20.15704,16.47835 34.07505,15.92857 28.22352,-1.11487 43.02555,-11.8877 51.61665,-30.64739 4.00539,-8.74624 -1.6206,-22.12632 5.24232,-52.0199 6.59909,-28.74439 15.2349,-52.33436 52.82642,-56.05246 14.81441,-1.45744 32.39482,-5.10865 43.14829,-29.03436 l 77.95377,-83.03687"
       style="color:#000000;fill:none;stroke:#ffffff;stroke-width:6;stroke-linecap:butt;stroke-linejoin:miter;stroke-miterlimit:4;stroke-opacity:1;stroke-dasharray:none;stroke-dashoffset:0;marker:none;visibility:visible;display:inline;overflow:visible"
       id="path3287"
       inkscape:connector-curvature="0" />
    <path
       d="m 441.39253,1031.9172 -3.03924,-248.3863 11.76903,-47.95113 -34.44082,-116.23776 -4.06593,-24.39557 -0.95669,-22.96055 -15.5462,-39.46343 -4.78344,-21.28634 -31.80992,-60.27142 -3.10924,-17.45959 -5.74014,-15.30702 -11.2411,-30.61406"
       style="color:#000000;fill:none;stroke:#ffffff;stroke-width:6;stroke-linecap:butt;stroke-linejoin:miter;stroke-miterlimit:4;stroke-opacity:1;stroke-dasharray:none;stroke-dashoffset:0;marker:none;visibility:visible;display:inline;overflow:visible"
       id="path3289"
       inkscape:connector-curvature="0" />
    <path
       d="m 460.57006,786.32805 c -0.64452,11.55365 0.82947,22.89214 10.15025,31.96742 14.92829,14.5351 40.16053,37.24088 40.16053,37.24088 5.27952,6.50064 10.49223,12.6403 14.58368,20.30048 10.31175,19.30611 33.0437,53.98586 33.0437,53.98586"
       style="color:#000000;fill:none;stroke:#ffffff;stroke-width:6;stroke-linecap:butt;stroke-linejoin:miter;stroke-miterlimit:4;stroke-opacity:1;stroke-dasharray:none;stroke-dashoffset:0;marker:none;visibility:visible;display:inline;overflow:visible"
       id="path3291"
       inkscape:connector-curvature="0" />
    <path
       d="m 436.72867,573.89927 -1.91338,19.61213 5.26179,15.30703 6.936,5.97931 6.69682,27.74399 3.34841,69.35997 -6.93599,23.19972"
       style="color:#000000;fill:none;stroke:#ffffff;stroke-width:6;stroke-linecap:butt;stroke-linejoin:miter;stroke-miterlimit:4;stroke-opacity:1;stroke-dasharray:none;stroke-dashoffset:0;marker:none;visibility:visible;display:inline;overflow:visible"
       id="path3293"
       inkscape:connector-curvature="0" />
    <path
       d="m 450.60066,608.34009 c 2.97219,4.54927 6.54304,8.6039 9.02876,13.63282 3.00809,6.08574 4.2774,7.92163 6.33806,9.38751 1.84511,1.31255 3.06938,2.24986 6.1587,2.33194 l 58.35804,94.71223 31.57075,45.68192 34.91916,14.82868"
       style="color:#000000;fill:none;stroke:#ffffff;stroke-width:6;stroke-linecap:butt;stroke-linejoin:miter;stroke-miterlimit:4;stroke-opacity:1;stroke-dasharray:none;stroke-dashoffset:0;marker:none;visibility:visible;display:inline;overflow:visible"
       id="path3295"
       inkscape:connector-curvature="0" />
    <path
       d="m 450.83984,414.37133 -31.57075,14.11117 c -5.79082,2.60926 -11.53004,5.32171 -17.93793,6.69682 -8.74549,1.53892 -15.88598,4.68284 -23.43888,7.41434 -7.42657,0.74833 -15.8137,5.40969 -18.89462,8.13186 -3.22243,2.8472 -8.37103,26.06979 -8.37103,26.06979 -3.11353,4.54489 -5.6014,9.00039 -4.3051,12.9153 l 7.41434,24.87392 -0.95669,8.61021 22.24303,43.29019 0.23917,20.32965 -2.15255,16.50289 -2.39172,17.45958 -20.32965,98.06065 -1.67421,23.91723 2.15255,18.89462 c 0.30586,2.70698 -0.30379,10.59752 -5.93392,14.69688 -6.27705,4.57039 -9.39999,-2.27582 -8.07949,-5.59349 1.46615,-3.68361 12.81842,-8.85637 12.81842,-8.85637"
       style="color:#000000;fill:none;stroke:#ffffff;stroke-width:6;stroke-linecap:butt;stroke-linejoin:miter;stroke-miterlimit:4;stroke-opacity:1;stroke-dasharray:none;stroke-dashoffset:0;marker:none;visibility:visible;display:inline;overflow:visible"
       id="path3297"
       inkscape:connector-curvature="0" />
    <path
       d="m 584.35478,524.90488 18.77694,-4.1268 24.14178,6.60288 45.80747,7.84092 12.3804,0.20634 c 3.56532,-0.71402 7.61985,0.88269 10.11066,-2.88876 l 2.26973,-2.68242 12.85996,-21.16673 13.48536,-16.79754 11.82925,-15.14145 7.33414,-10.40975 23.42193,-19.39998 0,-5.91463 229.96075,13.48536"
       style="color:#000000;fill:none;stroke:#ffffff;stroke-width:6;stroke-linecap:butt;stroke-linejoin:miter;stroke-miterlimit:4;stroke-opacity:1;stroke-dasharray:none;stroke-dashoffset:0;marker:none;visibility:visible;display:inline;overflow:visible"
       id="path3299"
       inkscape:connector-curvature="0" />
    <path
       d="m 504.70756,473.31989 c -2.30308,2.81164 -2.26234,6.17369 -2.68242,9.49164 -0.50051,3.95322 -0.0436,3.83616 -0.41268,6.19019 -0.29128,1.85767 -2.28753,4.27745 -5.57118,3.92046 -3.67296,-0.39932 -5.83893,-0.55516 -10.11066,2.88876 l -11.50345,8.20201 -2.01182,5.62277 c 0,0 -12.08277,7.84216 -14.65014,8.87262 -2.6648,1.06957 -4.07521,1.93444 -6.4997,1.54755 -3.43433,-0.54803 -6.89391,-3.00741 -8.66628,-2.26974 -13.23487,5.50845 -47.11943,15.53743 -47.11943,15.53743 l -45.07297,14.6126 -65.63022,7.18441 c -11.88951,2.92582 -23.47959,4.95334 -35.95093,9.62466 l -63.4095,26.60934 -25.19395,5.37849 -77.280336,0.56615"
       style="color:#000000;fill:none;stroke:#ffffff;stroke-width:6;stroke-linecap:butt;stroke-linejoin:miter;stroke-miterlimit:4;stroke-opacity:1;stroke-dasharray:none;stroke-dashoffset:0;marker:none;visibility:visible;display:inline;overflow:visible"
       id="path2303"
       inkscape:connector-curvature="0" />
    <path
       d="m 426.91739,482.39885 -11.96772,1.85705 -13.61844,7.42824 -37.24436,19.39596 -10.317,9.07896"
       style="color:#000000;fill:none;stroke:#ffffff;stroke-width:6;stroke-linecap:butt;stroke-linejoin:miter;stroke-miterlimit:4;stroke-opacity:1;stroke-dasharray:none;stroke-dashoffset:0;marker:none;visibility:visible;display:inline;overflow:visible"
       id="path3303"
       inkscape:connector-curvature="0" />
    <path
       d="M 356.12355,456.05478 343.24641,455.68436 290.86959,422.39862 270.7504,409.89406 C 261.2893,404.529 251.70321,399.78888 241.4561,398.35388"
       style="color:#000000;fill:none;stroke:#ffffff;stroke-width:6;stroke-linecap:butt;stroke-linejoin:round;stroke-miterlimit:4;stroke-opacity:1;stroke-dasharray:none;stroke-dashoffset:0;marker:none;visibility:visible;display:inline;overflow:visible"
       id="path2300"
       inkscape:connector-curvature="0" />
    <path
       d="m 724.10246,492.11554 -2.13273,-6.09078 c -0.89556,-4.27407 0.3956,-8.54815 1.27101,-12.82222 l 14.68667,-58.56401 c 0.85896,-4.11527 0.47644,-7.38402 -0.0184,-10.75543 l -8.51706,-58.77383"
       style="color:#000000;fill:none;stroke:#ffffff;stroke-width:6;stroke-linecap:butt;stroke-linejoin:miter;stroke-miterlimit:4;stroke-opacity:1;stroke-dasharray:none;stroke-dashoffset:0;marker:none;visibility:visible;display:inline;overflow:visible"
       id="path2304"
       inkscape:connector-curvature="0" />
    <path
       d="m 520.84217,513.5813 -11.6921,-37.93134"
       style="color:#000000;fill:none;stroke:#ffffff;stroke-width:6;stroke-linecap:butt;stroke-linejoin:miter;stroke-miterlimit:4;stroke-opacity:1;stroke-dasharray:none;stroke-dashoffset:0;marker:none;visibility:visible;display:inline;overflow:visible"
       id="path2306"
       inkscape:connector-curvature="0" />
    <path
       d="M 351.20997,421.83857 274.2473,388.85456 c -5.64818,-2.35335 -9.88725,-5.23513 -12.23351,-8.8267 l -5.80704,-6.65875 -9.17094,9.19808 -6.27091,19.47782 c -0.75291,2.47444 -2.09783,4.87335 -4.0856,7.6011 l -40.00079,52.16257 c -5.72752,7.08757 -5.86175,12.11883 -5.03573,17.48253 l 5.13074,31.92463"
       style="color:#000000;fill:none;stroke:#ffffff;stroke-width:6;stroke-linecap:butt;stroke-linejoin:round;stroke-miterlimit:4;stroke-opacity:1;stroke-dasharray:none;stroke-dashoffset:0;marker:none;visibility:visible;display:inline;overflow:visible"
       id="path2302"
       inkscape:connector-curvature="0" />
    <path
       d="m 361.56268,248.24028 83.09984,-39.82521 c 8.31918,-4.4886 15.89068,-10.32303 20.0694,-22.26448 3.03652,-9.45762 7.65006,-19.14052 8.04667,-28.22101 L 467.2406,16.501489"
       style="color:#000000;fill:none;stroke:#ffffff;stroke-width:6;stroke-linecap:butt;stroke-linejoin:round;stroke-miterlimit:4;stroke-opacity:1;stroke-dasharray:none;stroke-dashoffset:0;marker:none;visibility:visible;display:inline;overflow:visible"
       id="path2307"
       inkscape:connector-curvature="0" />
    <path
       d="M 316.43594,372.98956 244.27846,359.9565 c -6.25701,-2.71902 -11.67005,-7.91664 -19.82662,-9.90722 -8.93367,-3.48405 -17.9057,-6.84214 -26.94414,-8.70837 -10.25287,-2.11698 -26.45991,-0.19459 -30.05552,-1.14498 -2.54977,-0.67395 -65.8359,-15.45712 -65.8359,-15.45712"
       style="color:#000000;fill:none;stroke:#ffffff;stroke-width:6;stroke-linecap:butt;stroke-linejoin:round;stroke-miterlimit:4;stroke-opacity:1;stroke-dasharray:none;stroke-dashoffset:0;marker:none;visibility:visible;display:inline;overflow:visible"
       id="path2366"
       inkscape:connector-curvature="0" />
    <path
       d="m 256.37337,373.59604 c -4.03428,-5.38525 -8.06754,-11.41785 -12.33785,-13.97081"
       style="color:#000000;fill:none;stroke:#ffffff;stroke-width:6;stroke-linecap:butt;stroke-linejoin:round;stroke-miterlimit:4;stroke-opacity:1;stroke-dasharray:none;stroke-dashoffset:0;marker:none;visibility:visible;display:inline;overflow:visible"
       id="path2368"
       inkscape:connector-curvature="0" />
    <path
       id="path5058"
       d="m 153.69145,488.28865 63.99612,-1.51172 34.76954,-8.06251 24.69141,-34.76954 0,0"
       style="fill:none;stroke:#ffffff;stroke-width:6;stroke-linecap:butt;stroke-linejoin:miter;stroke-miterlimit:4;stroke-opacity:1;stroke-dasharray:none"
       inkscape:connector-curvature="0" />
    <g
       id="layer7"
       style="display:inline"
       transform="translate(83.14286,-299.1164)">
      <path
         id="path2061"
         style="fill:none;stroke:#000000;stroke-width:1;stroke-linecap:butt;stroke-linejoin:round;stroke-miterlimit:4;stroke-opacity:1;stroke-dasharray:none;display:inline"
         d="m 143.45033,465.64684 c -0.24576,28.14968 13.41792,50.23982 38.69828,61.14441 4.68723,2.01632 13.37024,8.19786 22.85963,22.00028 4.57655,6.65664 5.81652,15.87224 13.61889,24.55409 14.84318,14.49081 28.13279,21.08847 49.58615,25.73647 23.80104,5.14172 59.36359,33.73666 60.17305,81.40993 0.29746,17.49372 6.46312,37.53145 15.4759,52.69343 5.18544,8.72332 10.97602,18.45887 17.29255,30.43908 5.15413,9.52503 12.11917,17.39677 21.02493,24.32452 8.09428,7.21681 15.50218,14.74464 21.46408,23.38597 5.13858,5.81788 13.74114,20.41403 21.01228,36.02881 3.06207,6.57578 13.47579,30.71389 40.828,38.22514 11.58658,3.18182 15.48515,2.13671 23.10432,1.38989 2.53564,-0.24854 6.94081,-0.35288 10.52902,0.0523 12.01787,1.35703 23.86922,5.09533 35.43176,13.60131 15.63714,13.07449 27.15738,32.34905 26.34858,56.27342 -0.53915,14.76006 1.56355,23.55231 6.44616,36.54162 7.40949,19.71159 19.93926,35.08729 35.39445,46.64169 15.19819,9.1463 44.26599,21.6616 48.90788,64.7739 1.51606,16.5328 13.46014,31.1571 24.72984,35.7636 11.42374,4.6696 22.2112,13.1503 24.88682,27.6467"
         inkscape:connector-curvature="0" />
      <path
         id="path2063"
         style="fill:none;stroke:#000000;stroke-width:1;stroke-linecap:butt;stroke-linejoin:round;stroke-miterlimit:4;stroke-opacity:1;stroke-dasharray:none;display:inline"
         d="m 333.82194,917.21794 -4.58116,-24.35248 -0.36167,-22.66469 -15.67239,-38.69875 -5.78673,-23.62915 -30.75805,-57.8378 -2.52259,-9.88849 -0.68305,-8.24217"
         inkscape:connector-curvature="0" />
      <path
         id="path2065"
         style="fill:none;stroke:#000000;stroke-width:1;stroke-linecap:butt;stroke-linejoin:round;stroke-miterlimit:4;stroke-opacity:1;stroke-dasharray:none;display:inline"
         d="m 276.0752,984.9709 13.38182,-66.06516 23.26747,4.21949 46.89662,-13.1407 0.24111,-1.32612 5.90729,-1.56724 1.56724,1.44668 1.68779,-0.60278 5.66617,6.1484 2.5317,7.83619 8.31842,9.64455 8.07731,-0.36167 4.70172,0.36167 3.85782,-10.24733 19.65077,-0.36167 6.02784,-6.02785 0,-3.13447 -1.80835,-8.43898 6.02784,-1.32613 0.96445,2.53169 11.09123,-3.13447 -0.48222,-2.5317 16.39573,-3.97837 5.78673,-8.6801"
         inkscape:connector-curvature="0" />
      <path
         id="path2069"
         style="fill:none;stroke:#000000;stroke-width:1;stroke-linecap:butt;stroke-linejoin:round;stroke-miterlimit:4;stroke-opacity:1;stroke-dasharray:none;display:inline"
         d="m 569.56811,676.72612 4.076,12.01349 -1.93074,1.50168 0,7.93749 -2.14526,0 6.00674,32.39351"
         inkscape:connector-curvature="0" />
      <path
         id="path2071"
         style="fill:none;stroke:#000000;stroke-width:1;stroke-linecap:butt;stroke-linejoin:round;stroke-miterlimit:4;stroke-opacity:1;stroke-dasharray:none;display:inline"
         d="m 627.17261,809.20865 -4.06776,-2.87551 c -1.09079,-1.89233 -0.60336,-2.97516 0.11139,-4.32349 l 2.24016,-3.32928 0.10315,-7.18252 -40.11648,-49.12659 0.21453,-11.36991 -67.14682,-2.78885 -11.79897,2.35979 -3.64695,-0.21452 -13.30065,3.86147 -19.30739,4.50506 -5.57769,6.4358 -18.44929,11.36991 -5.79222,2.35979 c -19.59707,11.66806 -24.87141,13.6521 -21.88171,35.39689 -3.26343,6.84273 -8.69743,11.949 -14.80233,16.51855"
         inkscape:connector-curvature="0" />
      <path
         id="path2073"
         style="fill:none;stroke:#000000;stroke-width:1;stroke-linecap:butt;stroke-linejoin:round;stroke-miterlimit:4;stroke-opacity:1;stroke-dasharray:none;display:inline"
         d="m 490.62232,734.21924 c -26.38677,-10.86338 -52.77354,-20.14453 -79.16031,-33.03709 -9.18484,-2.98526 -14.69849,-8.06833 -19.95098,-13.30065 -19.47412,1.06255 -17.52485,-23.49334 -25.95771,-36.04047 l -0.21453,-21.88171 c -3.80736,-5.64333 -6.06329,-10.29943 -9.0176,-13.29891 -6.29417,-6.38059 -4.27818,-9.91633 -7.28642,-16.52029"
         inkscape:connector-curvature="0" />
      <path
         id="path1899"
         style="fill:none;stroke:#000000;stroke-width:1;stroke-linecap:butt;stroke-linejoin:round;stroke-miterlimit:4;stroke-opacity:1;stroke-dasharray:none"
         d="m 41.222531,656.04339 8.737384,0 1.568249,-3.36053 8.065278,0.44807 10.305632,12.32195 6.048959,0.89615 36.965857,15.01037 14.78634,6.72107 50.85606,16.35459 6.27299,7.39317 21.50741,8.96142"
         inkscape:connector-curvature="0" />
      <path
         id="path1901"
         style="fill:none;stroke:#000000;stroke-width:1;stroke-linecap:butt;stroke-linejoin:round;stroke-miterlimit:4;stroke-opacity:1;stroke-dasharray:none"
         d="m 321.2669,852.29849 -25.31601,8.51334 c -2.091,-0.35731 -4.182,0.82923 -6.273,2.24036 l -16.80266,6.04896 c -3.88328,1.72181 -7.76656,3.75413 -11.64984,4.92878 -5.45153,2.27625 -10.90306,6.28061 -16.35459,9.63353 l -1.79229,-1.79229 -9.18545,3.58457 -4.92878,2.01631 -7.39318,1.56826 c -0.74976,2.98416 -2.31591,5.15193 -4.25667,6.9451 -1.03949,3.5144 -4.22724,5.4176 -7.61721,7.16913 l -16.35459,0 c -2.97238,-1.84416 -6.70717,-1.52482 -12.77002,3.80861 -3.21118,2.22469 -6.42235,3.18673 -9.63353,4.25667 -8.00027,1.2827 -15.14463,4.70516 -21.95548,8.96142 -19.24454,-1.20005 -11.16887,-8.70477 -8.28931,-15.01038 l -9.40949,0 -4.92878,-3.36053 -8.06528,0"
         inkscape:connector-curvature="0" />
      <path
         id="path1903"
         style="fill:none;stroke:#000000;stroke-width:1;stroke-linecap:butt;stroke-linejoin:round;stroke-miterlimit:4;stroke-opacity:1;stroke-dasharray:none"
         d="m 170.57023,911.44386 c -1.21636,4.26643 -1.45543,10.53955 0.44807,12.99406 1.87337,2.41565 5.38362,7.41336 9.07194,14.13948 3.70648,6.75925 6.60808,9.42195 9.28012,12.40903 2.67204,2.98708 6.94581,4.6295 11.18085,6.20465 25.21669,8.64234 50.22585,18.52981 75.23648,28.40852 6.30038,2.41812 10.18582,8.55911 10.75371,17.6988 l 0.60823,62.3139 c 1.03917,4.7442 0.59454,10.9959 -0.0586,17.5568 -0.18761,1.8847 0.49769,13.4046 0.453,20.8661 -0.62047,4.3701 1.75219,6.1258 1.18506,10.6543 l 4.30777,64.1397 c -7.94747,-0.1824 -11.54438,-1.5549 -11.7124,-0.2712 l -2.17624,6.4012"
         inkscape:connector-curvature="0" />
      <path
         id="path1905"
         style="fill:none;stroke:#000000;stroke-width:1;stroke-linecap:butt;stroke-linejoin:round;stroke-miterlimit:4;stroke-opacity:1;stroke-dasharray:none"
         d="m 533.75387,899.65422 8.46522,-8.68798 c 0.24488,-2.10462 1.39034,-3.12855 3.11876,-3.45292 l 50.90265,-53.24172 12.25228,-0.11139 c 5.82261,-0.51205 7.41071,-4.51133 8.24244,-9.13351 7.08987,-11.36442 14.8589,-21.37051 22.8338,-30.96486 1.16176,-0.59752 2.23508,-2.07949 3.67568,0.11139 l 5.34645,14.81412 3.23015,-0.11139 c 13.22076,-5.86388 28.81034,-9.95114 43.21713,-14.9255 0.62628,2.77216 2.57935,3.88584 4.34399,5.23506 l 2.896,-0.44553 20.49472,-6.23753 c 1.815,-1.91513 3.25892,-3.69111 7.35137,-6.46029 l 17.71011,-4.23261 c 0.20872,-4.08409 -1.63475,-8.16819 -3.45291,-12.25228 l 8.91075,-2.89599 0.6683,-5.68061 c 1.35964,-1.2497 2.6968,-2.65669 4.34399,-1.89353 2.01795,3.58958 1.6376,5.26051 2.33908,7.79691 1.10096,1.44041 2.19681,2.80422 3.00737,-0.11138 l -1.33661,-22.38826"
         inkscape:connector-curvature="0" />
      <path
         id="path1907"
         style="fill:none;stroke:#000000;stroke-width:1;stroke-linecap:butt;stroke-linejoin:round;stroke-miterlimit:4;stroke-opacity:1;stroke-dasharray:none"
         d="m 879.62925,972.56629 -3.48103,-1.07109 -0.53554,-3.21326 -52.21544,-0.53553 c -1.04905,-8.99257 -1.6136,-17.34333 -0.53554,-27.04493 l 5.08766,-3.48103 c -3.07231,-4.8151 -6.66489,-13.27205 -9.10423,-13.65634 1.08503,-4.10583 1.67873,-8.21166 1.33886,-12.31749 l -4.28435,-8.30091 -3.48103,-0.26777 -12.85303,-23.29612 2.14218,-0.80332 c -1.08318,-7.3902 -0.22559,-17.69155 0,-27.04491 4.40559,-1.84241 7.72375,-4.77225 10.71085,-8.03315 l -9.372,-11.51417 c -9.58674,-5.74157 -18.07262,-6.52929 -26.2416,-5.89097 -7.92629,-5.46228 -15.52115,-11.256 -24.09944,-16.06629 -4.28434,-1.55983 -8.56868,-7.69055 -12.85303,-11.78195 L 729.945,786.19735"
         inkscape:connector-curvature="0" />
      <path
         id="path4713"
         style="fill:none;stroke:#000000;stroke-width:1;stroke-linecap:butt;stroke-linejoin:round;stroke-miterlimit:4;stroke-opacity:1;stroke-dasharray:none"
         transform="translate(-83.14286,299.1164)"
         d="m 423.03807,427.01132 -6.06041,3.24664 c -1.48336,0.10389 -2.68427,0.49023 -3.24665,1.5151 -1.78085,0.99528 -3.83627,1.90818 -6.27685,2.70554 l -6.81796,0.32467 -2.27265,-1.73155 c -1.36838,-0.0264 -2.81827,-0.37878 -4.0042,0.32467 l -24.65612,-1.05746 -0.65216,-0.68329 -12.89393,0.87497 -16.79273,9.14933 -0.41449,1.00794 -6.27685,3.37043 c -0.77799,1.68109 -1.86573,1.50364 -2.92199,1.5151 -3.79936,1.07835 -5.64931,2.8065 -7.79194,4.43708 -2.47278,0.69121 -3.21171,0.082 -4.65353,10e-6 -0.7127,-1.05493 -1.84069,-1.69456 -2.81377,-2.4891 -2.56124,0.2843 -5.12249,-1.91122 -7.68373,-2.92198 -3.2863,-0.0397 -5.94801,0.54529 -7.79195,1.94799 -2.59732,1.69596 -3.66056,-0.30982 -5.73574,-0.32467 -4.77349,-0.036 -7.85107,-0.52881 -10.93038,-2.81376 -1.8983,-1.63513 -2.82675,-0.68397 -3.89597,-0.10822"
         inkscape:connector-curvature="0" />
      <path
         id="path4780"
         style="fill:none;stroke:#000000;stroke-width:1;stroke-linecap:butt;stroke-linejoin:round;stroke-miterlimit:4;stroke-opacity:1;stroke-dasharray:none"
         transform="translate(-83.14286,299.1164)"
         d="m 635.45036,1007.3069 c -0.84386,-0.2333 -1.41486,0.1336 -2.71646,-1.1067 -1.8871,-2.0403 -3.05123,-4.8036 -4.36166,-7.42062 -1.95282,-0.8271 0.26629,-2.16637 -1.47181,-3.09019 -1.7381,-0.92381 -0.64643,-1.89768 -0.77965,-2.87027 -0.56845,-2.55164 -1.56611,-4.7967 -2.84418,-6.84146 l -19.8201,-2.81707 c 0.93416,-1.62103 8.64747,-0.73672 13.78352,-0.80488 1.41772,0.8512 2.80825,1.26735 4.125,0.50305 -0.73737,-3.91683 -4.71579,-7.32901 -6.2378,-11.16766 -1.41953,0.36883 -3.03073,0.67361 -4.96271,0 -1.93199,-0.67361 -3.50031,-0.11277 -5.25047,0 1.07054,-0.80536 2.13261,-1.61226 2.1128,-2.61586 -0.40845,-1.84012 -2.39248,-3.48825 -3.67095,-5.2317 l 6.94468,5.77541 c 1.87804,-0.73098 3.45165,-0.90444 5.3297,-0.74492 0.30987,0.12395 -1.68545,-5.97789 -2.51524,-5.83536 -2.04361,0.35102 -5.21234,-1.6638 -4.52744,-2.34113 1.42138,0.0992 3.02702,0.75717 4.00249,0.003 -0.75158,-3.2604 -3.80274,-6.72413 -4.80736,-10.03647 -1.19128,0.11483 -2.9401,1.48413 -3.01829,-0.90548 0.78637,-0.64468 1.26972,-1.33986 0.84554,-2.1863 -1.22926,-0.50283 -1.74697,-1.7172 -2.51524,-2.68101 -1.95443,1.24301 -3.62109,-1.07535 -7.30906,-1.60976 1.88009,-0.2222 3.43913,-0.83158 4.5191,-1.34337 -0.89316,-0.51004 -2.13211,-0.7686 -1.97936,-2.0393 0.61123,-1.16643 1.21136,-2.00429 2.61585,-2.91768 -2.42611,-2.91838 -4.08501,-4.42874 -5.63414,-7.04268 -0.90782,0.71446 -1.80778,1.50751 -2.61585,3.21951 l -1.24536,-2.86607 c 0.74195,-0.18459 1.59717,-0.2206 2.15085,-1.15831 0.40463,-2.44708 -0.0283,-3.30305 -1.11067,-3.58232 -1.78054,-0.45943 -1.98151,-3.4147 -0.007,-4.85273 -0.96836,-1.17983 -0.97108,-2.77827 -0.97054,-3.9581 -0.80403,-0.75549 -1.00975,-1.75031 -1.33254,-2.6983 -1.48334,-0.28664 -2.42601,0.10254 -2.69196,1.33764 -2.41463,-2.19861 -4.7912,-0.87917 -7.24389,0 0.93124,-1.15724 1.88749,-2.23529 7.92627,-2.89057 0.72525,-0.28484 -0.10449,-3.56001 -1.71297,-8.00498 -1.51012,-0.6475 -2.07601,1.80748 -2.93123,3.31178 0.42815,-1.25888 1.0603,-3.04616 -0.0871,-3.71422 -0.98854,0.37548 -2.32578,1.20497 -3.10419,0.1937 -0.79693,-1.03534 -1.7266,-0.47602 -2.62795,-0.2646 -0.89856,-2.53762 -2.6809,-4.92795 -4.1276,-7.37421 -0.81953,0.85449 -2.40774,0.55596 -3.79606,0.55726 l -0.21738,-7.43416 c -3.37003,-6.52544 -6.53259,-12.90727 -10.08546,-19.2081 l 5.1608,-3.08918 -5.04664,-8.05138 -1.05771,0.80488 c -0.56834,-1.83002 -1.24235,-2.39206 -1.90897,-3.04279 l 0.79393,-0.81583 c -0.94096,-0.56725 -1.79765,-2.14773 -2.34604,-3.40198 -0.69294,-1.60275 -1.88515,-1.66628 -2.31568,-2.93256 -0.91731,-2.05176 -1.50637,-2.64323 -2.92466,-4.19402 l -1.40854,0.90549 c 0.28389,-1.52888 0.32874,-3.11751 -0.19601,-4.84855 -1.25198,-0.92308 -2.10596,0.14702 -2.58822,-0.29349 -1.47647,-0.91164 -1.15684,-1.58885 -1.68899,-2.68935 l -0.45665,-5.04664 c -1.28343,-4.09736 -2.56593,-5.03713 -3.47234,-8.97876 -1.31686,-3.58298 -2.08755,-4.59 -3.18977,-7.006 -2.23274,-4.89405 -4.19618,-8.99113 -5.34015,-7.94417 -0.17945,-3.08127 -1.54662,-4.41119 -2.78735,-6.1153 -2.22584,-3.40448 -3.77023,-4.93499 -5.63437,-7.3448 l -5.63391,-7.34421 c -0.78806,0.067 -0.98096,-0.0134 -0.92999,2.7626 -0.71608,0.072 -1.31978,-1.21061 -2.06146,-2.65391 0.14436,-0.99326 0.89064,-1.46314 1.78413,-1.8571 -2.51274,-2.38109 -3.3763,-4.76219 -4.62804,-7.14328 0.57071,-1.55229 10.32845,-3.54206 15.89632,-5.33231 4.39329,-0.58818 8.78657,-0.62758 13.17986,-2.71646 4.12571,-0.75259 11.6796,0.67638 18.61278,1.71036 1.36259,-0.20742 1.7547,-0.90008 1.50914,-1.91158 l -11.97254,-19.21644 c 1.78234,-1.37157 3.91969,-2.49462 8.3506,-2.01219 6.55843,-4.49143 11.63072,-10.76623 16.90211,-16.8021 l 17.10394,-17.00273 c 6.76014,5.80397 17.83878,11.87108 19.21644,15.39327 l 10.4634,-1.40854 c 0.61459,-5.61956 -0.14426,-18.10086 5.43292,-19.61887 l 3.11889,-0.40244 c 5.61456,-5.39615 2.6305,-10.42656 3.21951,-15.79571 0.53265,-5.10066 3.98285,-7.28377 8.52004,-8.3799 0.78533,-3.50477 2.26542,-5.62003 4.65982,-5.90667"
         inkscape:connector-curvature="0" />
      <path
         id="path5667"
         style="fill:none;stroke:#000000;stroke-width:1;stroke-linecap:butt;stroke-linejoin:round;stroke-miterlimit:4;stroke-opacity:1;stroke-dasharray:none"
         transform="translate(-83.14286,299.1164)"
         d="m 527.50813,774.79546 -14.67877,-14.08332 c -2.32568,-1.0628 -3.57777,-3.02509 -4.73713,-4.92097 -1.84656,-0.73995 -3.68016,-1.52526 -5.69202,-1.68665 0.27687,5.96137 -2.66337,10.95449 -6.92281,15.92849 l -5.37781,6.20123 c -5.41567,3.48582 -11.67477,6.60251 -18.2643,8.81841 -1.42255,-0.13316 -5.03642,-3.19853 -6.43203,-3.40168 -0.42722,-0.0622 -3.88919,-0.10793 -3.88919,-0.10793 l -0.032,1.73152 -2.21904,-0.0485 c -1.31808,0.78341 -1.07689,1.95665 -1.09121,3.066 -2.44646,-0.46914 -4.89292,-0.58084 -7.33938,-0.53966 -1.10031,-0.42027 -1.89146,-0.68596 -3.7849,-1.5028 0.0117,0.82782 0.61501,1.46865 0.68689,2.72207 -1.37533,2.86688 -2.82793,5.38014 -3.27823,7.77936 l -3.88919,-2.27845 -2.37451,-0.005 0.0119,-2.87027 -8.39032,0.41621 c -0.93391,-1.47995 -0.6815,-3.55305 -0.99977,-5.34082 -2.31073,-0.7163 -4.75109,-1.95111 -7.23145,-3.3459 l -0.84696,1.8101 c -0.42222,0.62073 -1.01913,0.99431 -2.65309,0.18549 -1.31351,-0.23527 -13.66549,-5.27538 -22.7796,-8.36722 l -1.68302,0.78293 c -6.432,-3.63553 -12.7407,-5.42172 -19.09573,-7.90281 -0.83599,0.75759 -1.05,2.24082 -1.40312,3.56176 -0.87026,-0.70458 -1.77958,-1.55067 -2.33886,-1.56683"
         inkscape:connector-curvature="0" />
      <path
         id="path7439"
         style="fill:none;stroke:#000000;stroke-width:1;stroke-linecap:butt;stroke-linejoin:round;stroke-miterlimit:4;stroke-opacity:1;stroke-dasharray:none"
         transform="translate(-83.14286,299.1164)"
         d="m 594.39605,248.96953 -40.99283,0.17032 -7.34312,1.53533 c -1.05346,-5.66045 -3.82996,-3.16719 -3.47086,0.91 -7.80891,3.24165 -16.71466,7.89249 -21.17177,8.82723 -4.46893,0.93721 -43.05581,16.68371 -43.05581,16.68371 -2.96628,-3.37238 -5.77855,-0.88802 -6.03172,2.44651 -3.96445,2.17044 -7.6933,3.81081 -11.04863,4.61074 -5.23226,0.7632 -8.26235,-0.57738 -7.00008,4.32487 -3.24204,2.56496 -7.0461,4.2307 -11.04625,5.58269 -1.67743,-1.85703 -3.58371,-3.54002 -5.40996,-3.01586 -1.86934,-4.89474 -6.71973,-6.85763 -6.26161,1.87717 -0.40355,2.56205 -1.83935,5.1241 0,7.68615 -2.681,0.83367 -3.60471,3.45344 -7.97608,4.63969 -3.05511,0.82907 -4.92663,3.53511 -7.98417,4.59644 -2.03533,-0.18317 -4.93177,-0.0856 -6.2416,0.84885 -1.24486,0.8881 -2.52239,0.77095 -3.0256,-0.29654 -6.19618,-13.14437 -8.91459,-1.80337 -8.93324,1.02911 0.0795,2.7975 0.92529,5.44594 -2.84434,7.79931 -2.19507,1.93767 0.45796,2.12877 0.45142,3.58878 -5.43809,4.35099 -8.92494,6.09638 -14.61834,10.69607 -5.18899,4.19217 -7.5894,-5.63537 -12.09203,-1.63776 -1.58916,1.23149 -1.99292,2.01012 -0.81123,4.41524 0.51699,4.43912 -1.51633,5.8901 -3.52079,7.53742 l -39.09899,32.79093 c -6.94891,-0.3222 -8.31517,3.6072 -8.938,8.2555 -2.77285,4.03941 -5.25669,8.03753 -9.03567,12.22067 -3.08544,2.69547 -5.42542,5.75156 -6.3847,9.66197 -1.94381,2.97991 -4.19056,6.04941 -6.46637,8.72807 -1.64114,1.93164 -3.96494,3.84296 -4.98681,5.82736 -0.9045,5.30977 -3.04305,10.36008 -6.94649,14.5183 -4.73153,5.04037 -4.77001,8.2441 -3.41606,11.3869 -1.0761,3.79544 -4.5269,7.99961 -6.83333,11.44406 l -8.76768,8.08398 c -4.33294,-0.69505 -6.89999,3.97122 -9.39419,5.46715 0,0 -25.33167,20.16382 -26.36495,25.11907 -4.07734,19.55349 -6.6171,30.17487 -9.84443,45.82035 -1.52981,7.38913 1.13869,13.94895 1.13869,13.94895 0,0 4.14056,9.34417 5.18128,15.43068 1.25213,7.32286 1.01868,9.68064 -3.19096,13.83221 -2.94176,2.90119 -7.9527,6.04742 -11.95467,5.77369 -6.5085,-0.44519 -5.28379,3.15869 -5.8646,5.45879 l -1.82312,7.3296 -69.17302,13.94895 c -3.56656,1.32258 -7.33547,1.56595 -10.48286,5.1241 l -3.34579,0 c -4.32014,-3.95057 -7.23994,-1.61375 -10.25416,-0.0548 l -9.167885,-0.004"
         inkscape:connector-curvature="0" />
      <path
         id="path9211"
         style="fill:none;stroke:#000000;stroke-width:1;stroke-linecap:butt;stroke-linejoin:round;stroke-miterlimit:4;stroke-opacity:1;stroke-dasharray:none"
         transform="translate(-83.14286,299.1164)"
         d="m 121.87489,623.75796 45.72786,29.61559 c -1.55421,8.68805 8.03144,12.92366 14.75423,14.1847 5.8896,3.38876 10.0982,7.18677 15.94686,14.99764 5.83917,7.05399 9.74023,1.9646 13.37175,0.43326 l -9.30233,28.47654"
         inkscape:connector-curvature="0" />
    </g>
    <path
       sodipodi:nodetypes="ccc"
       inkscape:connector-curvature="0"
       id="path4029"
       d="m 239.27178,312.67058 11.61111,-31.93055 c 30.71325,-26.06255 60.7928,-47.05541 90.40078,-64.27578"
       style="fill:none;stroke:#ffffff;stroke-width:6;stroke-linecap:butt;stroke-linejoin:miter;stroke-opacity:1;stroke-miterlimit:4;stroke-dasharray:none;fill-opacity:1" />
    <g
       id="layer5"
       style="display:inline"
       transform="translate(83.14286,-299.1164)">
      <path
         id="path3121"
         style="fill:#0055d4;fill-rule:evenodd;stroke:none"
         d="m 121.32262,352.17512 -17.29625,11.07457 5.84837,13.56325 c 8.36083,6.49231 14.8456,16.89795 18.82447,30.87887 3.18621,11.19569 9.25036,22.84331 11.07458,35.7124 2.16047,15.24124 -1.72136,29.42988 2.20479,45.02554 3.6545,7.37525 8.81643,17.1916 19.59669,26.19733 10.41909,8.70401 19.08345,21.04024 32.02557,30.08082 l 11.58993,17.63533 c 0.95923,4.19832 1.16494,8.58501 8.95921,11.07457 13.02116,14.95238 29.5219,23.19413 47.16028,29.24187 9.1956,3.63018 22.99889,11.26704 39.81871,21.52698 l 21.65142,48.77792 c 0,0 1.26597,3.03455 0.65052,6.37969 -0.49632,2.69759 -0.56567,4.65559 1.15375,8.48336 0.86103,1.91683 0.50676,5.93491 0.99486,9.08257 1.50512,9.70614 5.21491,20.39577 10.88855,31.80057 8.54594,15.45985 16.70736,31.04787 26.73506,46.0138 l 28.63783,27.65081 c 11.06592,13.17098 18.86585,27.00743 26.36887,41.10786 1.29828,2.43985 2.25205,5.1561 3.57223,7.59024 l 5.42664,9.47707 9.055,12.25416 c 12.79205,14.07263 30.59803,18.00536 48.65349,19.16276 13.54857,-1.33837 27.13093,-2.59395 47.16028,11.94561 13.84801,10.93514 22.77077,30.59501 25.01112,62.09229 1.6135,13.24449 4.30174,26.40632 10.20354,39.32094 5.62549,10.7448 13.33502,18.9887 22.27359,25.7578 13.12949,10.5908 29.38044,15.7899 39.19654,32.1038 4.78475,12.0319 8.6211,18.6105 15.00461,39.8354 1.46781,9.0933 8.42255,28.208 25.94983,33.8243 5.7404,1.8394 6.98198,8.5977 9.31668,10.3329 1.52327,13.6181 -0.9015,27.5116 14.06098,40.192 l 32.10383,-5.9728 -4.23074,-4.6041 -4.60403,-18.2917 c -9.00069,-10.3975 -18.00137,-17.9887 -27.00206,-24.7622 -13.05024,-19.7404 -26.76614,-26.5295 -37.04157,-34.8846 2.07023,-13.1879 -2.55594,-23.8532 -16.21799,-41.8482 -8.20852,-10.8119 -22.53448,-18.2227 -34.96376,-26.0493 -12.43328,-10.5965 -21.88621,-22.9316 -30.36177,-35.83681 -2.53856,-6.04104 -3.86723,-14.19939 -5.10177,-22.52245 2.068,-11.93709 4.49872,-23.99026 -1.49321,-33.34817 -6.5475,-23.34821 -15.308,-32.07508 -24.14009,-39.4454 -20.65186,-17.09737 -42.88545,-16.55181 -65.01905,-18.4434 -5.19583,-0.44405 -10.22336,-1.41401 -14.85723,-2.96427 -7.28083,-2.43579 -13.58982,-6.30417 -18.05284,-11.81607 -9.04056,-12.73369 -13.9006,-26.82933 -20.88126,-39.05013 -6.94865,-12.16479 -12.1407,-22.85539 -21.06125,-31.7158 -4.7315,-4.69961 -10.30074,-9.63316 -13.74949,-14.87323 -0.54269,-0.82458 -0.11608,-1.84786 0.0583,-1.89555 l 2.30478,-0.6304 -0.74693,-0.83364 -2.96833,0.35024 c -2.42756,0.28644 -5.35461,-2.90342 -6.99893,-4.78997 -2.04096,-1.86807 -4.61816,-5.41666 -6.10701,-7.76279 -2.40443,-2.81793 -4.46507,-5.41672 -6.81901,-8.34233 -12.46569,-15.41682 -14.73407,-28.71617 -20.33782,-42.38965 -5.6928,-13.89076 -7.59131,-22.27405 -8.48502,-30.43053 -0.22928,-2.09252 -1.96995,-6.33345 -3.17891,-7.03275 -1.36571,-0.78996 -2.31289,0.18024 -2.56772,-0.12276 2.69527,-21.81702 -7.58258,-37.90111 -17.12559,-51.63275 -15.50281,-17.45088 -35.43193,-27.3065 -55.87062,-35.21467 -22.19846,-9.96096 -40.57667,-24.3083 -52.38649,-44.25769 -4.56973,-7.58903 -11.04503,-14.70166 -19.15736,-21.40504 L 171.96705,508.83684 C 163.74747,495.13129 149.034,480.88459 147.9514,467.7738 c 4.08489,-20.88278 6.76166,-40.29267 -1.61764,-57.23939 -12.34179,-20.25405 -19.24479,-39.42033 -25.01113,-58.35929 z"
         inkscape:connector-curvature="0" />
    </g>
    <g
       id="layer14"
       style="display:inline">
      <path
         id="path2247"
         style="fill:#0055d4;fill-opacity:1;fill-rule:evenodd;stroke-width:1px;stroke-linecap:butt;stroke-linejoin:miter;stroke-opacity:1"
         d="m 514.7526,596.46 12.06874,-9.41474 c 1.12259,-0.87572 2.80672,-0.63692 4.14762,0.11315 l 8.90373,4.98052 -1.71468,3.57077 -21.39181,5.30186 c -0.95522,0.2226 -1.91022,-0.30699 -2.06168,-1.18195 -0.18532,-1.07049 -0.50154,-2.63825 0.0481,-3.36961 z"
         inkscape:connector-curvature="0" />
      <path
         id="path2249"
         style="color:#000000;fill:#0055d4;fill-opacity:1;fill-rule:evenodd;stroke:none;stroke-width:1px;marker:none;visibility:visible;display:inline;overflow:visible;enable-background:accumulate"
         d="m 511.73032,586.34871 c 0.31298,-0.86285 1.33509,-1.71511 1.97384,-2.5936 0.43251,-0.59485 0.38579,-1.81031 0.31306,-2.30423 -0.23106,-1.56921 -1.38632,-3.65785 -2.72003,-5.65818 -1.23825,-1.85716 -2.37686,-3.99791 -3.27444,-6.23655 -2.31578,-5.7757 -4.60915,-11.32001 -4.81117,-15.08118 -0.52691,-0.39827 -0.11233,-1.45551 0.47209,-1.94535 0.34187,-0.51924 0.32894,-0.91015 1.13505,-0.70857 l -2.27279,-5.60968 c 6.6e-4,0.61464 -0.22081,1.86813 0.36281,3.1079 0.12378,0.54435 0.17557,0.68503 -0.0178,1.22938 L 502.77,552.1232 c 0.0763,0.74021 0.37549,1.54828 -0.55761,1.98129 l 0.0149,1.11205 c 0.32209,2.14338 0.62651,5.19284 1.75695,8.40022 1.67772,4.76012 4.44694,9.95481 6.84232,13.91151 -0.4377,0.54847 -1.48644,0.4612 -1.79254,1.10069 -0.11393,0.23802 0.12976,0.52167 0.18209,1.0704 0.22119,2.31935 0.68239,4.23269 1.54844,6.28281 0.50997,1.2072 0.83202,0.79263 0.96579,0.36654 z"
         inkscape:connector-curvature="0" />
      <path
         id="path2982"
         style="color:#000000;fill:#0055d4;fill-opacity:1;fill-rule:evenodd;stroke:none;stroke-width:1px;marker:none;visibility:visible;display:inline;overflow:visible;enable-background:accumulate"
         d="m 306.06069,634.48487 -0.77966,-5.42316 c 0.10915,-0.54167 0.36994,-0.96203 1.0817,-1.02161 l 2.82445,0.0601 -1.1418,3.18502 1.08171,0.30047 c 2.32477,-0.7944 4.25891,-0.70794 3.06482,1.68265 -0.5074,0.30053 -1.25293,0.39695 -0.96151,1.38218 l 1.1418,0.48076 c -0.15356,1.74275 -0.52654,3.48549 0.24038,5.22824 0.74124,1.69057 1.22396,3.98871 0.1437,4.85771 -0.66368,0.53389 -2.50466,0.1914 -3.98976,-0.35061 -0.77882,-0.0862 -1.27485,0.15382 -0.84289,1.03624 -0.22221,1.8647 -0.24815,3.82754 -0.91762,5.46862 -0.79252,0.76411 -2.90182,1.84811 -2.86678,-0.84289 0.017,-1.27956 0.24038,-3.43847 0.24038,-3.43847 0.16053,-1.21883 0.79395,-2.03232 1.80284,-2.52398 0.80656,-0.32993 1.60375,-0.67862 2.76435,-0.30047 1.08919,0.31829 2.17951,1.48699 3.3773,0.61066 1.81427,-2.0944 -0.24839,-4.14335 -0.73313,-5.8389 -0.67476,-1.73817 -1.84528,-3.31109 -3.24512,-4.80757 l -2.28516,0.25501 z"
         inkscape:connector-curvature="0" />
      <path
         id="path2984"
         style="color:#000000;fill:#0055d4;fill-opacity:1;fill-rule:evenodd;stroke:none;stroke-width:1px;marker:none;visibility:visible;display:inline;overflow:visible;enable-background:accumulate"
         d="m 561.54134,669.63888 c 1.34436,2.61114 2.18538,5.52676 3.89079,8.75206 1.70541,3.2253 1.30989,5.1552 0.91624,7.53423 -0.47044,2.59256 -0.98682,5.18207 0,7.87178 0.73748,2.084 1.36002,4.10301 2.29896,5.78826 0.59569,1.06916 0.63035,2.37256 0.87244,3.60171 0,0 -0.0338,0.89596 -0.33756,1.63052 -0.34519,0.83481 0.36528,1.38067 1.40869,1.3009 0.4477,1.42669 0.92762,1.40376 1.42515,0.58833 0.0114,-0.0797 0.84525,-0.0342 1.80751,0.0634 0.17171,0.0174 2.20096,2.62009 2.3769,2.64041 0.18347,0.0212 -1.48636,-2.5399 -1.30704,-2.51649 0.56459,0.0737 1.04062,-0.22672 1.38843,-0.2168 0.3239,0.009 1.16019,0.67227 1.4712,0.72311 0.67309,0.11002 0.69172,0.23604 0.82609,-0.23917 0.14065,-0.49741 -0.57023,-0.30834 -0.9602,-0.45913 -0.39797,-0.15389 -0.93012,-0.43431 -1.13455,-0.45656 -2.30775,-0.25122 -4.70312,-4.36464 -4.46834,-4.5767 -0.44173,-0.87489 -1.10634,-1.69621 -1.29802,-2.67548 -0.57068,-2.91562 -1.64092,-5.06683 -2.43562,-7.57287 -0.62964,-1.98557 0.13853,-2.70101 1.24985,-5.88192 0.66377,-1.89989 0.96841,-4.85336 -1.11424,-9.6296 -0.59045,-1.35409 -1.22258,-2.26396 -1.78124,-3.28464 -1.4378,-2.62692 -2.68667,-4.49893 -3.69451,-5.52152 -0.73659,-0.74738 -1.33151,-1.43401 -1.86802,-1.86714 -1.48467,-1.1986 -1.91969,-0.79787 -0.98581,0.45012 0.26117,0.34901 0.82303,0.73402 1.16648,1.4875 0.23661,0.51908 -0.0762,1.76143 0.28642,2.4657 z"
         inkscape:connector-curvature="0" />
      <path
         id="path2986"
         style="color:#000000;fill:#0055d4;fill-opacity:1;fill-rule:evenodd;stroke:none;stroke-width:1px;marker:none;visibility:visible;display:inline;overflow:visible;enable-background:accumulate"
         d="m 611.52479,749.12615 c 0.70262,3.9083 1.17918,8.04267 1.268,12.56478 0.40947,3.79561 0.56598,7.67554 1.84437,11.18151 -0.32768,4.14984 -1.09933,8.29968 0.92219,12.44952 0.95878,5.66933 1.29521,11.64864 -0.46109,16.71462 -0.40287,2.36671 1.4426,3.83408 2.42073,5.64839 l 1.15274,-0.34582 c -2.29981,-6.44905 -1.18511,-10.60313 1.7291,-13.37169 -4.1529,-8.56047 -3.11462,-20.03384 -3.9193,-30.54743 -0.65706,-9.02972 -2.46662,-11.37436 -4.95674,-14.29388 z"
         inkscape:connector-curvature="0" />
      <path
         id="path2988"
         style="color:#000000;fill:#0055d4;fill-opacity:1;fill-rule:evenodd;stroke:none;stroke-width:1px;marker:none;visibility:visible;display:inline;overflow:visible;enable-background:accumulate"
         d="m 624.4354,810.79736 c -2.45552,-0.0353 -4.23166,-0.57336 -6.38111,-1.86873 l 1.60968,-1.22611 c 2.35896,0.0533 4.67347,-0.96207 6.84634,-0.2481 5.17271,1.69968 7.07223,9.22772 4.84148,15.44663 -1.94648,1.77962 -2.70282,1.17894 -2.1902,-1.95965 -0.29694,-2.86576 -1.22538,-7.32879 -4.72619,-10.14404 z"
         inkscape:connector-curvature="0" />
      <path
         id="path2990"
         style="color:#000000;fill:#0055d4;fill-opacity:1;fill-rule:evenodd;stroke:none;stroke-width:1px;marker:none;visibility:visible;display:inline;overflow:visible;enable-background:accumulate"
         d="m 534.05961,500.8761 c -0.0415,-0.98159 -0.47763,-1.93968 -0.0325,-2.61114 0.50549,-0.76257 1.16441,-0.92151 2.2034,-0.33502 1.06746,0.60256 1.33118,2.78629 1.35056,3.94925 0.0194,1.16296 -0.56351,1.36825 -1.27303,0.70259 -0.65162,-0.61134 -2.19826,-0.51869 -2.24839,-1.70568 z"
         inkscape:connector-curvature="0" />
      <path
         id="path2992"
         style="color:#000000;fill:#0055d4;fill-opacity:1;fill-rule:evenodd;stroke:none;stroke-width:1px;marker:none;visibility:visible;display:inline;overflow:visible;enable-background:accumulate"
         d="m 521.97771,492.55543 c -0.26291,0.6651 1.77645,3.02625 2.70084,3.3191 0.94826,0.30041 1.81153,0.0451 1.36669,-0.74843 -0.39232,-0.69984 -1.70626,-1.69497 -2.37544,-2.6683 -0.31441,-0.45731 -1.28254,-0.93846 -1.69209,0.0976 z"
         inkscape:connector-curvature="0" />
      <path
         id="path2994"
         style="color:#000000;fill:#0055d4;fill-opacity:1;fill-rule:evenodd;stroke:none;stroke-width:1px;marker:none;visibility:visible;display:inline;overflow:visible;enable-background:accumulate"
         d="m 513.01785,483.17857 c 1.03922,4.60001 4.30146,4.48487 6.71874,5.56828 0.38988,0.17474 19.84097,0.10966 20.15626,-0.2301 0.22573,-0.24324 -0.87436,-2.53103 -0.87436,-2.53103 -7.63863,-0.0253 -15.22963,0.32345 -22.75529,-1.74381 -0.68916,-0.18931 -1.30915,-0.96376 -2.05996,-1.26344 -0.32971,-0.1316 -1.26126,-0.13573 -1.18539,0.2001 z"
         inkscape:connector-curvature="0" />
      <path
         id="path2996"
         style="color:#000000;fill:#0055d4;fill-opacity:1;fill-rule:evenodd;stroke:none;stroke-width:1px;marker:none;visibility:visible;display:inline;overflow:visible;enable-background:accumulate"
         d="m 472.61419,478.04249 5.40168,-1.10637 c 1.75717,-0.38417 3.51435,-0.37481 5.27152,-0.0651 l 11.45415,2.47306 -0.45556,1.82225 -9.76207,-2.27782 c -0.66196,-0.29442 -1.26824,-0.31042 -1.75717,0.26032 l -0.19524,1.49686 1.23653,1.23652 16.72567,3.64451 -0.26032,1.49685 -15.22882,-3.12386 c -1.98732,0.30104 -2.4647,-1.15952 -3.51435,-1.95242 -1.07711,-1.79696 -2.33414,-1.6148 -3.57942,-1.56193 0.15836,-1.83309 -0.8539,-1.71515 -1.69209,-1.88733 l -2.6683,0.58572 -0.97621,-1.04128 z"
         inkscape:connector-curvature="0" />
    </g>
    <g
       id="layer1">
      <path
         id="path4185"
         style="fill:none;stroke:#000000;stroke-width:4;stroke-linecap:butt;stroke-linejoin:round;stroke-miterlimit:4;stroke-opacity:1;stroke-dasharray:none;display:inline"
         transform="translate(83.14286,-299.1164)"
         d="m 136.24998,487.93706 -20.38379,7.50563 -6.4738,-8.83829 -3.53828,5.59879 -4.14699,1.80161 -1.14129,-4.38648 c -8.097179,3.28957 -16.851762,5.0452 -25.8679,6.19054 -12.478283,14.3998 -12.264098,22.17506 -14.298944,31.04598 -10.196435,0.0839 -21.855758,-0.53796 -30.380329,-4.82227 -1.449213,-0.58878 -2.803669,0.90804 -2.33391,1.52194 3.916112,5.11775 11.367201,15.18243 10.893448,18.85216 -0.428481,3.31905 -9.885663,39.06043 -9.885663,39.06043 l 1.92891,10.00621 -2.170024,61.12233 c 3.925581,0.56495 8.010377,0.40199 12.537914,2.77281 l -6.389514,56.1795 C 23.425465,730.13311 12.303606,748.73139 -0.12055686,767.0041 L 68.114625,779.66257 c 4.57384,15.28017 -1.855825,35.89538 -7.353969,56.05894 l -22.061905,0.24111 c -6.830977,6.42785 -12.831334,10.19772 -18.083528,11.57346 l 0,13.62293 5.545615,2.53169 -1.808353,30.13921 -3.616705,0.24112 -5.183945,27.37598 -0.789771,2.41797 -22.8020919,5.01062 c -14.8344071,5.20144 -20.6054651,14.25962 -20.6154561,25.76932 -1.277808,1.75699 8.440931,34.28888 10.513883,33.60319 1.723864,0.85093 1.001545,15.85779 0.328865,15.99229 l 24.4096819,-10.63227 0.2061546,30.92317 15.6677465,-0.4123 c 1.254685,1.0285 2.653535,1.4803 4.5354,0 l 52.157104,-0.2061 2.886164,-5.5662 14.843129,-0.6185 7.215406,-0.8246 0.82462,-4.1231 2.47386,-2.0615 2.2677,1.8554 9.27695,-2.0616 -8.65849,24.5324 12.57543,4.3292 0.41231,3.0924 3.71078,0.6184 1.64924,2.2677 0.20615,23.0893 4.94771,0 9.0708,14.4309 -2.68001,3.9169 14.43082,7.8339 -0.61846,3.0923 c 7.53096,7.0836 18.14554,14.2759 30.97964,18.4861 3.95335,1.2969 7.52253,2.211 11.4639,5.7878 l 13.34628,2.9125 0.23425,12.1976 c 14.52517,13.4202 27.55798,26.9186 50.41375,32.179 8.08851,5.1019 15.79836,11.448 22.5253,21.0236 l -12.22802,24.027 c 0,0 0.068,15.1102 -0.57561,17.899 2.27368,1.4629 8.01585,14.0746 7.55261,15.3294 l 14.03597,0.876 c -1.61485,2.8905 -3.01142,4.8145 -4.99181,6.7488 -1.8261,2.1972 -3.31962,3.5387 -3.74685,6.5803 l 5.10234,15.8518 c -2.5025,5.2207 -4.43009,8.5565 -6.79672,12.8095 -1.37867,2.4362 -1.3663,4.596 -0.0508,5.5315 l 5.32265,2.1899 c 0,0 -4.48192,15.2488 -5.1255,17.8231 -0.49702,1.1087 6.593,2.6206 6.593,2.6206 l -0.90315,4.7293 c 5.79222,1.4861 10.98629,2.745 17.25386,1.2881 l 56.94976,-0.8733 0.35543,-8.8017 39.75538,-0.8475 -1.23678,-2.2025 15.35445,-16.6332 0.66085,-3.2599 4.28244,-3.1824 10.45655,8.6065 0.6007,1.9225 8.55922,6.2147 9.89365,2.6529 48.76432,34.3963 c 0,0 3.52179,3.7378 8.04664,2.3695 2.30329,-0.6966 5.81114,-3.8699 7.61434,-6.7744 3.31812,-5.3446 3.98401,-9.3819 6.56822,-11.6622 1.27216,-1.1225 8.20054,-6.836 17.39513,-6.2159 6.62364,0.4467 13.30644,-1.9515 17.06918,-4.0505 l 4.50625,-0.4652 -5.30234,-8.8364 -2.53113,-1.0318 22.91829,-18.4599 -2.59028,-5.2166 17.15149,-15.8803 c 13.78027,2.4702 20.56079,-9.4877 24.81548,-26.6519 l 6.36417,-5.1607 c 0,0 1.77488,4.6634 3.86679,7.5138 2.29345,3.1249 2.15591,5.7189 2.15591,5.7189 2.24498,3.9337 5.61251,1.8399 6.00674,-0.2145 0.5128,-14.1459 5.55202,-23.5138 13.08612,-30.2483 l -0.37172,-4.505 c 3.90853,-1.9788 8.23918,-4.2531 11.1808,-7.9724 l 5.5088,-10.7574 7.51052,-7.7929 c 2.71532,-0.137 4.40671,0.5262 7.49249,-0.7222 0.22905,-1.8383 0.58146,-3.4298 -0.89323,-8.6756 1.11241,-1.3823 2.33249,-1.9032 3.26897,-4.693 7.67205,-0.2529 14.24643,-1.9667 21.33575,-3.9678 9.66786,0.8582 18.81199,-2.4609 27.56036,-7.1196 l 0.85811,-7.2939 28.31751,-8.152 1.50168,3.6469 62.42724,-9.0101 c 14.94535,-11.816 29.89071,-19.078 44.83606,-26.6013 l 32.60804,22.0962 -2.35979,5.3632 19.09287,16.304 16.30402,-21.8817 -19.52192,-16.304 5.79222,-12.228 6.86485,-2.1453 3.2179,-12.6571 c 1.21448,-4.2746 -0.55448,-9.4985 6.86485,-11.7989 l 7.50843,-0.6436 0.8581,-2.3598 6.78192,-0.5697 c 0.82321,-4.2311 -2.67767,-5.6575 -7.50843,-6.2213 l -0.73371,-12.318 6.22128,0.429 0.32989,4.6528 1.98843,-0.1316 0.21453,-8.3665 -3.64695,-0.2145 -22.55774,-30.9333 c 5.96987,-3.0969 10.4872,-7.9796 13.0771,-13.6883 l -59.07592,-37.41954 5.61733,-7.54807 0.29746,-5.23157 c 2.90267,-1.77606 5.76739,-3.72292 8.36654,-6.86485 l 10.94085,-5.14864 c -1.01327,-1.99039 -2.52936,-4.1131 -6.43579,-6.86485 l -0.37137,-8.61351 c 4.80035,-4.37234 9.66013,-8.72591 17.31897,-12.19557 5.00635,-0.2374 10.4265,0.077 14.58781,-1.28716 -13.01822,-22.42815 -19.58753,-32.13025 -27.12951,-47.80698 l -2.26064,-0.0324 2.3598,-35.39689 c 3.9948,-4.82099 7.71974,-9.67796 9.43917,-14.80233 l 0.42905,-10.29728 -5.14864,0 -6.96401,7.61478 c -8.17529,1.80425 -16.15155,2.4143 -23.71329,0.53723 l -3.00338,-33.25162 36.68405,-2.35979 1.93074,-28.96109 -4.29053,0.21452 -5.38841,-35.39688 -139.59912,25.66025 -25.2889,-3.51353 c 7.3871,-1.29083 8.5264,-6.38257 10.85793,-10.56229 l 0.64358,-27.24487 c -2.82955,-4.23825 -5.49893,-9.85348 -8.72398,-9.48277 -2.96128,0.3404 -16.05066,-18.41583 -24.07335,-27.63034 l 1.70471,-6.75172 1.72772,-40.2296 -7.29391,-8.36654 -10.07373,4.24907 -8.63155,18.77919 -13.04465,5.28925 c -1.1167,2.47679 -1.92643,5.19477 -5.111,6.04682 -5.69394,1.4908 -5.86115,10.84895 -10.12039,11.68498 l -96.21593,18.88587 -5.80678,0.28091 -14.01275,-46.33775 -8.60449,0 c -0.73518,-2.93186 -1.39529,-5.86373 -1.07263,-8.79559 -7.3719,-8.94106 -12.53368,-18.41413 -17.3523,-26.42676 -2.82131,-4.6914 -3.75198,-10.16498 -5.57648,-15.26987 -1.44756,-4.05023 -3.25549,-7.60368 -4.53063,-11.50596 l 4.93411,-1.71621 -5.27798,-18.30667 c -3.46431,-17.62825 -7.41486,-35.51434 -13.01447,-52.99008 l 27.5171,-7.43451 -7.93749,-30.89183 3.28461,-0.38039 c -0.12484,-0.86334 0.96059,-3.23395 -1.46298,-3.23 l -3.19172,-6.31553 -0.27941,-11.31222 -6.74948,-0.0162 c -0.83469,-7.60922 -1.98503,-15.02116 -4.04356,-21.86549 l 11.66737,-0.89957 -9.01012,-39.38996 -7.59136,-0.0415 -5.63538,-19.73645 1.98843,-2.14526 c -0.91082,-4.06557 -7.11175,-27.62937 -7.93749,-28.74656 l -20.80908,5.57769 -8.58106,0.21452 -0.21453,12.01349 -16.9476,-1.28716 -10.94085,4.29054 -0.21453,-5.36317 -1.93074,-2.78885 -8.36654,-0.21452 -7.762,5.21168 -24.61981,3.18962 -7.07695,-11.36299 -5.88085,5.38246 c -0.72455,7.85073 -2.19196,17.9056 -3.82417,22.46821 l -4.54856,3.24804 -1.69448,-1.49513 -8.27305,2.49188 -18.83865,-1.59481 -2.54446,-6.08019 c 1.32236,-7.73183 -1.88132,-14.45472 -4.93119,-21.13118 -5.01699,1.12697 -9.45711,2.00833 -14.5318,2.31334 -2.93435,1.91606 -5.07844,3.5 -6.99807,5.56102 -8.85451,-0.0698 -6.50659,-1.71086 -9.05003,-3.04285 -0.8713,-0.30281 -2.72485,0.10328 -3.77937,0.723 -2.1085,1.23913 -8.89656,4.6058 -14.17713,6.31431 -7.66312,2.05747 -11.01125,4.11495 -13.66102,6.17242 l -18.34027,-0.19935 -11.36299,-33.78994 -29.40423,0.89707 -2.49188,5.18312 -17.64254,-0.0997 -0.29902,2.19285 -2.99026,-2.19285 -9.36949,18.24059 -9.96753,-5.6815 8.45122,17.34862 c 0.84556,2.01429 -0.28798,2.28232 -2.0406,2.0041 l -9.60024,-5.79687 -6.75163,6.47342 -3.85294,-3.43405 -5.48988,-2.63556 -6.46394,0.23623 -2.64888,9.40599 -24.22112,15.57054 c 6.62509,9.09948 12.8473,18.29967 20.62222,27.11169 4.3504,6.94361 8.84745,14.0336 9.74189,25.03421 l -1.83193,37.07923 -5.6344,10.82263 -1.08569,11.027 z"
         inkscape:connector-curvature="0" />
    </g>
    <path
       id="path4183"
       d="m 196.01959,508.4449 7.5586,60.46877 -0.50391,14.61329 0,0"
       style="fill:#ffffff;fill-opacity:1;fill-rule:evenodd;stroke:#ffffff;stroke-width:6;stroke-linecap:butt;stroke-linejoin:miter;stroke-miterlimit:4;stroke-opacity:1;stroke-dasharray:none"
       inkscape:connector-curvature="0" />
  </g>
</svg>
